<?xml version="1.0" encoding="UTF-8"?><!DOCTYPE svg PUBLIC "-//W3C//DTD SVG 1.0//EN" "http://www.w3.org/TR/2001/REC-SVG-20010904/DTD/svg10.dtd" []><svg xmlns="http://www.w3.org/2000/svg" xmlns:xlink="http://www.w3.org/1999/xlink" data-name="Layer_1" height="570" preserveAspectRatio="xMidYMid meet" version="1.0" viewBox="0.0 0.0 90.0 570.0" width="90" zoomAndPan="magnify"><g id="change1_1"><path d="M0 0H30V30H0z"/></g><g id="change1_2"><path d="M30 30H60V60H30z"/></g><g id="change1_3"><path d="M60 0H90V30H60z"/></g><g id="change1_4"><path d="M0 60H30V90H0z"/></g><g id="change1_5"><path d="M30 90H60V120H30z"/></g><g id="change1_6"><path d="M60 60H90V90H60z"/></g><g id="change1_7"><path d="M0 120H30V150H0z"/></g><g id="change1_8"><path d="M30 150H60V180H30z"/></g><g id="change1_9"><path d="M60 120H90V150H60z"/></g><g id="change1_10"><path d="M0 180H30V210H0z"/></g><g id="change1_11"><path d="M30 210H60V240H30z"/></g><g id="change1_12"><path d="M60 180H90V210H60z"/></g><g id="change1_13"><path d="M0 240H30V270H0z"/></g><g id="change1_14"><path d="M30 270H60V300H30z"/></g><g id="change1_15"><path d="M60 240H90V270H60z"/></g><g id="change1_16"><path d="M0 300H30V330H0z"/></g><g id="change1_17"><path d="M30 330H60V360H30z"/></g><g id="change1_18"><path d="M60 300H90V330H60z"/></g><g id="change1_19"><path d="M0 360H30V390H0z"/></g><g id="change1_20"><path d="M30 390H60V420H30z"/></g><g id="change1_21"><path d="M60 360H90V390H60z"/></g><g id="change1_22"><path d="M0 420H30V450H0z"/></g><g id="change1_23"><path d="M30 450H60V480H30z"/></g><g id="change1_24"><path d="M60 420H90V450H60z"/></g><g id="change1_25"><path d="M0 480H30V510H0z"/></g><g id="change1_26"><path d="M30 510H60V540H30z"/></g><g id="change1_27"><path d="M60 480H90V510H60z"/></g><g id="change1_28"><path d="M0 540H30V570H0z"/></g><g id="change1_29"><path d="M60 540H90V570H60z"/></g></svg>