<?xml version="1.0" encoding="UTF-8"?><!DOCTYPE svg PUBLIC "-//W3C//DTD SVG 1.0//EN" "http://www.w3.org/TR/2001/REC-SVG-20010904/DTD/svg10.dtd" []><svg xmlns="http://www.w3.org/2000/svg" xmlns:xlink="http://www.w3.org/1999/xlink" height="257.8" preserveAspectRatio="xMidYMid meet" version="1.0" viewBox="-2.0 -2.0 530.6 257.8" width="530.6" zoomAndPan="magnify"><g id="change1_1"><path d="M234.22,3.06c16.81-4.08,34.35-4.08,51.15,0l104.34,25.32,109.66,26.61c11.88,2.88,20.25,13.52,20.25,25.75v84.36c0,12.23-8.37,22.87-20.25,25.75l-109.66,26.61-104.34,25.32c-16.81,4.08-34.35,4.08-51.15,0l-104.31-25.31-109.66-26.61c-11.88-2.88-20.25-13.52-20.25-25.75V80.73c0-12.23,8.37-22.87,20.25-25.75l109.66-26.61L234.22,3.06Z" fill="#344974" fill-rule="evenodd"/></g><g id="change2_1"><path d="M266.8,255.82c-8.77,0-17.53-1.05-26.05-3.12L26.78,200.78c-12.82-3.11-21.78-14.5-21.78-27.69V88.73c0-13.19,8.95-24.58,21.78-27.69L240.75,9.12c8.52-2.07,17.28-3.12,26.05-3.12s17.53,1.05,26.05,3.12l214,51.92c12.82,3.11,21.78,14.5,21.78,27.69v84.36c0,13.19-8.96,24.58-21.78,27.69l-214,51.93c-8.52,2.07-17.28,3.11-26.04,3.11Z" fill="#344974"/></g><g id="change2_2"><path d="M259.8,247.82c-8.77,0-17.53-1.05-26.05-3.12L19.78,192.78c-12.82-3.11-21.78-14.5-21.78-27.69V80.73c0-13.19,8.95-24.58,21.78-27.69L233.75,1.12c8.52-2.07,17.28-3.12,26.05-3.12s17.53,1.05,26.05,3.12l214,51.92c12.82,3.11,21.78,14.5,21.78,27.69v84.36c0,13.19-8.96,24.58-21.78,27.69l-214,51.93c-8.52,2.07-17.28,3.11-26.04,3.11Z" fill="#344974"/></g><g id="change3_1"><path d="M234.22,3.06c16.81-4.08,34.35-4.08,51.15,0l104.34,25.32,109.66,26.61c11.88,2.88,20.25,13.52,20.25,25.75v84.36c0,12.23-8.37,22.87-20.25,25.75l-109.66,26.61-104.34,25.32c-16.81,4.08-34.35,4.08-51.15,0l-104.31-25.31-109.66-26.61c-11.88-2.88-20.25-13.52-20.25-25.75V80.73c0-12.23,8.37-22.87,20.25-25.75l109.66-26.61L234.22,3.06Z" fill="#df4443"/></g></svg>
